# xmcd CD database file
#
# Track frame offsets:
#	150
#	24844
#	44318
#	63773
#	89632
#	118984
#	142349
#	164423
#	172768
#	193827
#	214717
#	245428
#
# Disc length: 3689 seconds
#
# Revision: 0
# Processed by: cddbd v1.5.2PL0 Copyright (c) Steve Scherf et al.
# Submitted via: CDex 1.51
#
DISCID=aa0e670c
DTITLE=Southside Johnny -  Grapefruit Moon The Songs Of Tom Waits
DYEAR=2008
DGENRE=Jazz
TTITLE0=Yesterday Is Here 
TTITLE1=Down, Down, Down 
TTITLE2=Walk Away /w. Tom Waits 
TTITLE3=Please Call Me Baby 
TTITLE4=Grapefruit Moon 
TTITLE5=All The Time In The World 
TTITLE6=Tango Till They´re Sore 
TTITLE7=Johnsburgh, Illinois 
TTITLE8=New Coat Of Paint 
TTITLE9=Shiver Me Timbers 
TTITLE10=Dead And Lovely 
TTITLE11=Temptation
EXTD=YEAR: 2008
EXTT0=
EXTT1=
EXTT2=
EXTT3=
EXTT4=
EXTT5=
EXTT6=
EXTT7=
EXTT8=
EXTT9=
EXTT10=
EXTT11=
PLAYORDER=
